<?xml version="1.0" encoding="utf-8"?>
<!-- Generator: Adobe Illustrator 23.1.0, SVG Export Plug-In . SVG Version: 6.00 Build 0)  -->
<svg version="1.1" id="Layer_1" xmlns="http://www.w3.org/2000/svg" xmlns:xlink="http://www.w3.org/1999/xlink" x="0px" y="0px"
	 viewBox="0 0 257 263.1" style="enable-background:new 0 0 257 263.1;" xml:space="preserve">
<style type="text/css">
	.st0{fill:#FBBB58;}
	.st1{fill:#FFFFFF;}
	.st2{fill:none;}
	.st3{fill:#77391A;}
</style>
<title>Asset 3</title>
<g>
	<g id="Layer_5">
		<path class="st0" d="M198.7,42.8c0,0-2.4,9.4,8.7,10.1c9.1-7.5,12.2-20.1,7.8-31c-7.4-19.5-26.9-18.4-26.9-18.4
			S171.6,2,163.5,22.7c0,0-1.5,1.8,6.3,7.8c0,0,24.4,17.7,31.4,47.6s-1.9,52-1.9,52s-4.4,19.9-26.6,38.7
			c-13.5,11.3-30.1,18.3-47.6,19.9c0,0-32.5,5.9-64.2-18.8c0,0-7.4-2.2-5.5,5.9c7,5.2,14.4,9.7,22.1,13.6c12.5,6.3,29.9,7,29.5,7.4
			s-0.4,0-0.4,0c13.8,0.9,27.7-0.8,41-4.8c21-6.6,37.6-23.6,37.6-23.6c10.7-11.4,18.5-25.2,22.9-40.2c7-24.7,1.1-48.7,1.1-48.7
			s-1.8-19.9-18.4-39.8c0,0-10.3-12.5-14.8-14c1.8-4.6,5.9-7.9,10.7-8.9c8.1-1.5,13.3,4.8,13.3,4.8c2.3,2.9,3.3,6.6,3,10.3
			c0,0-0.4,5.2-1.1,6.6S199.3,42.6,198.7,42.8z"/>
		<path class="st1" d="M143.5,49.8V50c-0.5,0.3-0.7,0.5-1,0.7h0c-0.4,0-0.8,0-1.2,0C142.1,50.5,142.9,50.2,143.5,49.8z"/>
		<path class="st1" d="M144.1,44.2c-0.9,4.6-0.5,1.3-0.4-0.7C143.9,43.7,144.1,44,144.1,44.2z"/>
		<path class="st1" d="M139.8,44.3L139.8,44.3z"/>
		<path class="st1" d="M139.8,45.8c0.8,0,1.5-0.7,1.5-1.5s-0.7-1.5-1.5-1.5s-1.5,0.7-1.5,1.5S139,45.8,139.8,45.8z"/>
		<path class="st1" d="M140.7,44.1L140.7,44.1z"/>
		<path class="st1" d="M141.1,47.2L141.1,47.2z"/>
		<path class="st1" d="M141.1,48.7c0.8,0,1.5-0.7,1.5-1.5s-0.7-1.5-1.5-1.5s-1.5,0.7-1.5,1.5S140.2,48.7,141.1,48.7z"/>
		<path class="st1" d="M140.2,46.8L140.2,46.8z"/>
		<path class="st2" d="M140.5,47.1v1"/>
		<path class="st1" d="M115.1,47L115.1,47z"/>
		<path class="st3" d="M88.2,87.2c0,0-7,5.2-17.7,3c-0.4-8.3-3.1-16.4-7.8-23.3L69,53.3c0,0,2-4.3,2.1-8.7l2,20.5c0,0-1.8,2.2,0.7,3
			c2.6,0.8,2.6-2.6,2.6-2.6s1.1,0.4-1.1-0.7l-3.3-22.9c0.8,3.9,2.6,7.6,5.2,10.7c4.4,5.5,10.3,12.5,10.3,12.5S82.6,76.5,88.2,87.2z"
			/>
		<path class="st1" d="M71.1,44.6l-0.3-2.8C71,42.7,71.1,43.7,71.1,44.6z"/>
		<path class="st3" d="M197.2,94.5c-0.7-7-4.5-18.5-5.4-20.7c-0.1-0.2-0.3-0.4-0.5-0.5c-4.5-2.5-4.8,0.8-4.8,1.8
			c0,0.1,0,0.3,0.1,0.4c1.2,2.8,2.1,5.7,2.9,8.7c3.5,13.7,3,16.7,1.5,24.4c-1.5,7.3-8.6,18.3-9.2,19.1l-0.1,0.1
			c-7,11.8-20.6,16.5-20.6,16.5s-7.2,4.4-19.9,4.1c-12.7-0.4-26.1-7.1-28.3-8.1l-0.1-0.1c-0.3-0.2-10.5-8.4-16.5-17.3
			c-5.6-8.2-6.7-25.7-7-23.1c0,0.3,0,0.2,0.1-0.8c0.2-1.5,0.2-2.9-0.1-4.3c-0.4-1.1-1.7-1.7-2.9-1.3c-6.8,2.3-11.4,2.1-13.5,1.9
			c-0.1,0-0.1,0-0.2,0c-0.6,0-1.2,0.5-1.1,1.2c0.3,12.3,4.2,24.3,11.2,34.5l0.1,0.1c0.5,0.8,8,12.4,25.4,20.6
			c17,8,34.6,5.5,36.7,5.2c0.1,0,0.2,0,0.4,0c0.8,0.1,4.6,0.2,17.6-5.9c4.9-2.4,9.4-5.5,13.4-9.3c0.4-0.4,1-0.4,1.5,0
			c0.5,0.4,0.6,1.1,0.2,1.6c-4.3,5.1-9.1,9.6-14.4,13.6c-14.8,11.1-33.5,11.4-45.8,10.7c-12.2-0.7-25.6-8.9-34-15.5
			c-7-5.5-15-20.5-15.8-22c0-0.1-0.1-0.2-0.1-0.3c0-0.1-0.1-0.3-0.1-0.4c-0.1-0.3-0.3-0.6-0.7-0.7c-0.6-0.3-1.3,0-1.5,0.6
			c-3.7,8.9-13.2,13.9-15.4,13.9s-1.7,1.7-1.7,1.7c1.9,7,13.3,17.3,13.3,17.3c16.2,15.8,33.7,18.9,35.3,19.2c0.1,0,0.2,0,0.2,0.1
			c1.2,0.5,12.5,4.5,37.9,0.7c26.9-4.1,44.3-27.3,44.3-27.3c0.6,0.1,13.7-17.9,16.2-32.5C198.2,107.6,198.4,106.9,197.2,94.5z"/>
		<path class="st1" d="M85.7,96.1L85.7,96.1z"/>
		<path class="st1" d="M141.3,50.6c-0.2,0-0.4,0-0.6,0c-0.2,0-0.4,0-0.6,0C140.5,50.6,140.9,50.6,141.3,50.6z"/>
		<path class="st3" d="M184.3,115.1c-5.5,11.8-19.9,19.9-19.9,19.9s-13.6,7.8-35.8,3.7c-21.8-4-30.7-25.8-31-26.5
			c-3.7-7.7-5.5-16.1-5.5-24.6c0-3.1,0.3-6.2,0.8-9.3c3.3-18.4,15-28,15.5-28.4c0.5-0.4,15.1-10.2,23-10.2c0.3,0,0.6,0,0.9,0h0.1
			c0.5,0.1,7,0,10,1.4c1.9,0.7,3.3,2.5,3.3,4.7c0,1.7-0.9,3.2-2.1,4.1c-0.6,0.4-1.4,0.7-2.2,0.8c-0.4,0-0.8,0-1.2,0h0
			c-9,0.3-17.4,4.8-22.6,12.3c-0.2,0.2-0.1,0.5,0.1,0.7c0.1,0.1,0.3,0.1,0.5,0c4.1-2.1,14.8-6.7,23.3-2.5c0.1,0,0.1,0.1,0.2,0.2
			c0.7,1.1,5.5,9.7-2.9,14.6c-0.1,0.1-0.2,0.1-0.3,0c-1.5-0.3-12.9-2.4-15.3,4.8c-2.4,7.2-1.1,11.5-1.1,11.5c0,1.3-0.1,19.1,17,27.6
			c10.3,5.2,22.5,5,32.5-0.7c0,0,10.7-5.3,14.2-16.7c0.1-0.3,0.3-0.4,0.6-0.3c0.1,0,0.2,0.1,0.2,0.1
			C187.3,103.3,188.4,106.4,184.3,115.1z"/>
		<path class="st1" d="M110.1,138.2L110.1,138.2z"/>
		<path class="st1" d="M109.3,137.5L109.3,137.5z"/>
		<path class="st1" d="M109.7,138.1L109.7,138.1z"/>
		<path class="st3" d="M24.9,88.3c0,0,2.6,10.7,6.3,14.4c0,0,1.1,1.8,8.9,2.2c0,0,18.1-2.6,21.4,18.4c0,0-5.9,14-19.2,14.4
			c0,0-15.5-1.5-21.8-22.9c0,0-2.6-11.8,1.1-21.8C21.5,93.1,23.4,89,24.9,88.3z"/>
		<polygon class="st0" points="0.5,208.8 0.5,244.6 23.5,244.6 23.5,237.6 10.5,237.5 10.5,229.6 19.5,229.6 19.5,222.6 9.5,222.6 
			9.5,215.6 22.5,216 22.5,208.6 		"/>
		<polygon class="st0" points="28.9,209.6 37.8,226.6 28.9,243.9 37.8,244.6 42.2,235.4 45.5,244.6 56.2,244.6 47.7,226.6 
			56.2,209.6 46.6,209.6 43.7,217 40.4,209.6 		"/>
		<path class="st0" d="M91.1,215.6c-1.5-6.2-8.7-6.9-8.7-6.9H61.5v48h11v-18c4,0.4,8.1,0,12-1.2c6.9-2.2,6.5-7.6,6.5-7.6
			S92.5,221.7,91.1,215.6z M81.6,228.2c-0.5,0.8-1.3,1.3-2.2,1.5h-6.9v-13h6.2c0.2,0,0.4,0,0.7,0c1.6,0.2,2.8,1.6,2.6,3.3
			C82,219.9,82.7,226.7,81.6,228.2z"/>
		<path class="st0" d="M123.7,236c0,0,5.5-2.6,5.5-10c0.1-3.2,0-6.4-0.4-9.6c-0.6-4.6-4.6-8-9.2-7.7h-12.2v0h-8l0.1,48l9.5,0
			l0.3-17.5l0-0.5h5.2l5.4,18h11.5L123.7,236z M118.8,227c0,0-0.4,2.3-1.9,2.3c-0.9,0-4.9-0.1-7.7-0.3l-0.2-11.4l7.2-0.1
			c1.4,0.5,2.3,1.7,2.6,3.1C119,222.7,119,224.9,118.8,227z"/>
		<polygon class="st0" points="137.5,208.6 137.5,256.2 167.5,256.9 167.5,247.3 147.9,247 148.2,236.6 163.5,236.6 163.5,227.6 
			148.5,226.8 148.5,216.6 166.5,216.6 166.5,208.6 		"/>
		<path class="st0" d="M180.9,221.8c-0.8-2.3,0.3-4.9,2.6-5.9c4.1-1.9,7.4,1.8,7.4,1.8s2.2,1.9,2.2,4.1l8.9-2.6c0,0,0-5.5-3.7-8.1
			s-5.2-3-5.2-3s-8.1-3.3-14.8,0S171,217,171,217s-1.8,5.9,0,9.2s1.1,5.2,8.1,8.9c0,0,4.4,1.5,8.1,2.6s5.2,2.6,5.2,3.7
			s0.7,4.8-1.9,6.3s-7.4,0.4-7.4,0.4s-3.3-1.1-4.1-6.6l-10,2.6c0,3.1,1.3,6.1,3.7,8.1c0,0,3.7,5.2,11.8,5.2s12.2-3.3,12.2-3.3
			s7.4-4.8,5.9-13.6s-6.3-10-6.3-10c0.1-0.6-9-1.9-12.2-3.7C180.5,224.6,180.5,220.8,180.9,221.8z"/>
		<path class="st0" d="M220.4,219.1c0,0,0.4-4.8-5.2-3.7c0,0-3.3,1.1-1.5,5.2c0.9,1.3,2.2,2.2,3.7,2.6c3.2,1,8.9,2.4,9.2,4.8
			s1.4,1.7,1.5,6.3s-1.5,6.6-1.5,6.6s-2.2,3.4-4.4,4.1c-2.5,0.6-5.1,0.9-7.7,0.7c-2.6-0.1-10.3-1.1-11.1-10.7l6.6-1.1
			c0,0,1.3,4,2.6,4.8c1.1,0.6,1.7,1.8,5.5,0.7c1.7-0.5,2.4-3.9,1.5-5.5c-1-1.8-3.4-2.9-6.3-3.3s-6.6-3.7-7.8-5.9s-1.5-5.9,0.4-11.1
			s9.2-5.2,9.2-5.2s11.8-1.5,12.2,8.9L220.4,219.1z"/>
		<path class="st0" d="M255.3,216.5c-2.3-7.7-9.3-7.8-9.6-7.8c0,0-4-1.1-6.6,1.1c-3,2.5-3.5,2.3-5.2,7l-0.4,1.5l0.1,0l-0.1,0
			c0,0-1.6,13.8-0.4,18.5c1,3.5,1.2,7.5,10.3,8.8c8.1,1.2,11.5-5.7,11.8-6.2c0,0,0,0,0,0c0,0,0,0,0,0v0
			C255.3,238.9,258.5,227.1,255.3,216.5z M248.6,218.7c-0.4,2.2,0,17.3,0,17.3s-0.4,3-1.8,3.3c-1.4,0.2-2.7,0.2-4.1,0
			c-1.2-0.5-2-1.7-2.2-3v-16.2c0,0,0.4-4.1,2.6-4.8c1.2-0.5,2.5-0.5,3.7,0C246.8,215.4,249,216.5,248.6,218.7z"/>
		<path class="st1" d="M255.3,239.4C255.3,239.4,255.3,239.4,255.3,239.4L255.3,239.4C255.3,239.4,255.3,239.4,255.3,239.4z"/>
		<rect x="205.5" y="247.6" class="st0" width="50" height="8"/>
		<rect x="1.5" y="259.6" class="st0" width="254" height="3"/>
		<rect x="1.5" y="247.6" class="st0" width="57" height="8"/>
	</g>
</g>
</svg>
