<svg xmlns="http://www.w3.org/2000/svg" viewBox="0 0 303 347.36"><defs><style>.cls-1,.cls-2,.cls-3{stroke:#000;stroke-miterlimit:10;}.cls-2{font-size:15.34px;letter-spacing:0.01em;}.cls-2,.cls-3{font-family:Calibri;}.cls-3{font-size:12.43px;letter-spacing:0.01em;}</style></defs><title>logoexpresso black</title><g id="Layer_2" data-name="Layer 2"><g id="Layer_5" data-name="Layer 5"><path class="cls-1" d="M227.26,46.88s-2.83,11.1,10.22,12c0,0,17.85-13.49,9.14-36.56S214.85.53,214.85.53s-19.58-1.74-29.16,22.63c0,0-1.74,2.18,7.4,9.14,0,0,28.73,20.89,37,56.14s-2.18,61.37-2.18,61.37-5.22,23.51-31.34,45.7S140.43,219,140.43,219s-38.3,7-75.73-22.19c0,0-8.71-2.61-6.53,7a178.72,178.72,0,0,0,26.11,16.11c14.8,7.39,35.26,8.26,34.82,8.7s-.43,0-.43,0A137.22,137.22,0,0,0,167,222.93c24.81-7.83,44.39-27.85,44.39-27.85a116.73,116.73,0,0,0,27-47.44c8.26-29.16,1.3-57.45,1.3-57.45s-2.18-23.51-21.76-47c0,0-12.19-14.8-17.41-16.54,0,0,3-8.7,12.62-10.44s15.67,5.65,15.67,5.65A17.34,17.34,0,0,1,232.26,34s-.43,6.09-1.3,7.83S227.91,46.66,227.26,46.88Z"/><path class="cls-1" d="M165,51.32V58.9a.56.56,0,0,1-.58.56A34.45,34.45,0,0,0,135,74.13a.55.55,0,0,0,.7.82c4.82-2.49,17.48-8,27.48-2.9a.56.56,0,0,1,.22.21c.79,1.29,6.54,11.44-3.38,17.17a.58.58,0,0,1-.39.06c-1.82-.37-15.24-2.81-18.07,5.7s-1.31,13.52-1.31,13.59c0,1.59-.07,22.5,20,32.55a40.29,40.29,0,0,0,38.3-.88s12.57-6.28,16.74-19.67a.56.56,0,0,1,1-.21c1,1.23,2.32,4.9-2.47,15.1-6.52,13.92-23.5,23.5-23.5,23.5s-16.1,9.14-42.22,4.35c-25.66-4.7-36.19-30.43-36.55-31.31,0,0,0,0,0-.05a67.55,67.55,0,0,1-5.64-40c3.84-21.76,17.72-33.06,18.26-33.5l0,0c.65-.44,19.24-13,28.24-11.75h.07c.73,0,12.62-.33,13.46,3,.19.77-.87,9.14.43,2.17C166.45,51.43,165,50.64,165,51.32Z"/><path d="M164.84,52.2"/><path d="M164.84,53.7a1.5,1.5,0,0,0,0-3,1.5,1.5,0,0,0,0,3Z"/><path d="M165.88,51.9"/><path d="M165.88,53.4a1.5,1.5,0,0,0,0-3,1.5,1.5,0,0,0,0,3Z"/><path d="M165,49.62c.91.56,1.12,1.78,1.23,2.84a11.4,11.4,0,0,1,0,3.45,3.92,3.92,0,0,1-1.87,2.76,12.48,12.48,0,0,1,.26-2.44l.23-1.29a19.25,19.25,0,0,0,.41-3.77,1,1,0,0,0-.09-.45c-.3-.53-1.12-.15-1.71-.31"/><path d="M164.28,50.92c.14.09.14.09,0,0l.16.17c-.24-.26,0,.12.09.2-.17-.31,0,.13.06.22a4.37,4.37,0,0,1,.12.49c0,.07.08.62,0,.24l.06.59c0,.46.09.92.1,1.38q0,.35,0,.69c0,.11,0,.23,0,.34s0,.23,0,.12a4.09,4.09,0,0,1-.13.56c0,.05-.2.57-.07.27a4.23,4.23,0,0,1-.25.47c0,.08-.09.15-.14.23.1-.13.1-.13,0,0s-.24.25-.37.36c.24-.2-.19.1-.25.13l2.26,1.3a13.81,13.81,0,0,1,.32-2.69c.19-1.06.38-2.11.49-3.18s.3-2.43-.53-3.26a2.33,2.33,0,0,0-1.55-.62l-.45,0h-.29c-.11,0-.34-.06,0,0a1.5,1.5,0,0,0-.8,2.9,4.76,4.76,0,0,0,1.19.07s.33,0,.34,0a.65.65,0,0,1-.38-.11,1,1,0,0,1-.45-.64,2.64,2.64,0,0,0,0,.69l0,.51c0,.48-.07.65-.13,1.06a32.08,32.08,0,0,0-.73,5.24A1.52,1.52,0,0,0,165.17,60c2.07-1.12,2.8-3.55,2.73-5.77s-.2-4.61-2.11-5.86a1.5,1.5,0,0,0-2,.53,1.55,1.55,0,0,0,.54,2.06Z"/><path d="M166.32,55.6"/><path d="M166.32,57.1a1.5,1.5,0,0,0,0-3,1.5,1.5,0,0,0,0,3Z"/><path d="M165.29,55.16"/><path d="M165.29,56.66a1.5,1.5,0,0,0,0-3,1.5,1.5,0,0,0,0,3Z"/><path d="M165.29,55.9v1.33"/><path d="M163.79,55.9v1.33a1.06,1.06,0,0,0,.13.58,1.36,1.36,0,0,0,.79.79,1.06,1.06,0,0,0,.58.13l.4,0a1.49,1.49,0,0,0,.66-.39l.23-.3a1.45,1.45,0,0,0,.21-.76V55.9a1.27,1.27,0,0,0-.13-.58,1.17,1.17,0,0,0-.31-.48,1.11,1.11,0,0,0-.49-.31,1,1,0,0,0-.57-.13l-.4.05a1.39,1.39,0,0,0-.66.39l-.24.3a1.57,1.57,0,0,0-.2.76Z"/><path d="M125,58.48a44.61,44.61,0,0,1,22.74-9.32,38.85,38.85,0,0,0-12.11,2.69,10.23,10.23,0,0,0,5.79-2,17.19,17.19,0,0,0-8.05,3.49,36.4,36.4,0,0,1,26.82-4.94"/><path d="M126.11,59.54a43.22,43.22,0,0,1,21.67-8.88c1.87-.21,2-3.06,0-3a41.49,41.49,0,0,0-12.51,2.74c-1.51.53-1.38,3,.4,3a12.15,12.15,0,0,0,6.54-2.16,1.51,1.51,0,0,0-1.15-2.74,19.14,19.14,0,0,0-8.71,3.87c-1.35,1,.4,3.26,1.82,2.36a35,35,0,0,1,25.66-4.79c1.88.38,2.69-2.51.8-2.89a38.13,38.13,0,0,0-28,5.09l1.81,2.35a16.17,16.17,0,0,1,7.39-3.1L140.7,48.6a9.31,9.31,0,0,1-5,1.75l.4,2.94a38.79,38.79,0,0,1,11.71-2.63v-3A47,47,0,0,0,124,57.42c-1.51,1.19.62,3.3,2.13,2.12Z"/><path d="M135.65,55.31"/><path d="M135.65,56.81a1.5,1.5,0,0,0,0-3,1.5,1.5,0,0,0,0,3Z"/><path class="cls-1" d="M81.24,49.27A29,29,0,0,0,87.33,61.9c5.22,6.52,12.19,14.79,12.19,14.79s-5.66,13.5.87,26.12c0,0-8.27,6.09-20.9,3.48a52.89,52.89,0,0,0-9.13-27.42l7.39-16.1s3.49-7.4,2.18-13.5l2.61,27.42s-2.17,2.61.87,3.48,3-3,3-3,1.3.43-1.31-.87Z"/><path class="cls-1" d="M82.16,108.55c2.5.34,8,.52,16-2.18a2.65,2.65,0,0,1,3.36,1.55,14.24,14.24,0,0,1,.16,5.14c-.13,1.14-.16,1.33-.12,1,.37-3.07,1.63,17.6,8.23,27.27,7.13,10.43,19.16,20.12,19.51,20.39a1,1,0,0,0,.17.11c2.67,1.17,18.47,9.09,33.42,9.53s23.5-4.79,23.5-4.79,16.06-5.64,24.34-19.52a.83.83,0,0,1,.08-.12c.71-.93,9.11-13.93,10.84-22.58,1.82-9.08,2.39-12.61-1.74-28.72a74.83,74.83,0,0,0-3.39-10.22,1.29,1.29,0,0,1-.1-.51c0-1.13.41-5.1,5.71-2.12a1.32,1.32,0,0,1,.57.64c1.09,2.54,5.53,16.16,6.35,24.39,1.46,14.69,1.23,15.45-1.74,32.64s-18.44,38.45-19.15,38.31c0,0-20.46,27.42-52.23,32.2-29.95,4.52-43.27-.25-44.7-.82l-.28-.07c-1.92-.31-22.57-4-41.63-22.61,0,0-13.5-12.19-15.67-20.46,0,0-.65-1.95,2-1.95s13.78-6,18.17-16.44a1.37,1.37,0,0,1,2.56.11,5.16,5.16,0,0,1,.13.5,1,1,0,0,0,.09.3c1,1.77,10.34,19.46,18.65,26,9.89,7.74,25.68,17.41,40,18.28s36.56.44,54-12.62a99.42,99.42,0,0,0,17-16,1.37,1.37,0,0,0-2-1.89,65.44,65.44,0,0,1-15.87,10.94c-15.29,7.26-19.84,7.14-20.72,7a1.41,1.41,0,0,0-.41,0c-2.47.39-23.26,3.26-43.28-6.13-20.57-9.66-29.4-23.36-30-24.32l-.07-.11a74.12,74.12,0,0,1-13.23-40.69A1.39,1.39,0,0,1,82.16,108.55Z"/><path d="M101.06,113.68"/><path d="M101.06,115.18a1.5,1.5,0,0,0,0-3,1.5,1.5,0,0,0,0,3Z"/><path d="M101.06,113.24"/><path d="M101.06,114.74a1.5,1.5,0,0,0,0-3,1.5,1.5,0,0,0,0,3Z"/><path d="M101,112.12a36.87,36.87,0,0,0-.24,4.45"/><path d="M99.53,112.12a39,39,0,0,0-.24,4.45,1.5,1.5,0,0,0,3,0,39,39,0,0,1,.24-4.45,1.53,1.53,0,0,0-.44-1.06,1.56,1.56,0,0,0-1.06-.44,1.54,1.54,0,0,0-1.06.44,1.76,1.76,0,0,0-.44,1.06Z"/><path d="M86.36,76.07A2.65,2.65,0,0,1,87,78.34"/><path d="M85.3,77.13l.17.19-.24-.3a2.59,2.59,0,0,1,.34.58l-.15-.36a2.72,2.72,0,0,1,.19.69l0-.4a2.51,2.51,0,0,1,0,.67l0-.4a.59.59,0,0,1,0,.14,1.22,1.22,0,0,0,0,.6,1.12,1.12,0,0,0,.18.56,1.52,1.52,0,0,0,.9.69,1.49,1.49,0,0,0,1.15-.15,1.42,1.42,0,0,0,.69-.9,4,4,0,0,0-.06-2,4.26,4.26,0,0,0-1-1.72,1.52,1.52,0,0,0-1.06-.44A1.58,1.58,0,0,0,85.3,75a1.56,1.56,0,0,0-.44,1.06,1.59,1.59,0,0,0,.44,1.06Z"/><path d="M129.8,162.91"/><path d="M129.8,164.41a1.5,1.5,0,0,0,0-3,1.5,1.5,0,0,0,0,3Z"/><path d="M128.8,162.13"/><path d="M128.8,163.63a1.5,1.5,0,0,0,0-3,1.5,1.5,0,0,0,0,3Z"/><path d="M129.36,162.8"/><path d="M129.36,164.3a1.5,1.5,0,0,0,0-3,1.5,1.5,0,0,0,0,3Z"/><path class="cls-1" d="M29.23,105.2s3,12.62,7.39,17c0,0,1.31,2.17,10.45,2.61,0,0,21.33-3.05,25.24,21.76,0,0-7,16.54-22.63,17,0,0-18.28-1.74-25.68-27,0,0-3-13.93,1.31-25.68C25.31,110.86,27.48,106.07,29.23,105.2Z"/><polygon class="cls-1" points="0.5 245.78 0.5 288.43 27.05 288.43 27.05 279.73 12.03 279.51 12.03 270.37 22.91 270.37 22.91 262.54 11.6 262.54 11.6 254.27 26.83 254.7 26.83 245.56 0.5 245.78"/><polygon class="cls-1" points="34.01 247.09 44.46 267.11 34.01 287.56 44.46 288.43 49.68 277.55 53.6 288.43 66.22 288.43 56.21 267.11 66.22 247.09 54.9 247.09 51.42 255.79 47.51 247.09 34.01 247.09"/><polygon class="cls-1" points="71.01 247.09 71.01 303.67 83.63 303.67 83.63 282.74 83.63 272.22 83.63 256.81 83.63 247.09 82.91 247.09 71.01 247.09"/><path class="cls-1" d="M96.69,247.09s8.7.87,10.44,8.27,0,17,0,17,.44,6.53-7.83,9.14a36.59,36.59,0,0,1-15.67,1.31V272.33H93.2a3.68,3.68,0,0,0,2.62-1.74c1.3-1.74.43-10,.43-10s.44-3.92-3.92-3.92h-8.7v-9.57Z"/><polygon class="cls-1" points="115.4 247.09 115.4 303.67 127.15 303.67 127.59 282.78 127.11 246.38 115.4 247.09"/><path class="cls-1" d="M141.52,247.09H127.15V257.7l10-.17a4.79,4.79,0,0,1,3.05,3.48,38.65,38.65,0,0,1,0,7.4S139.77,271,138,271s-12.62-.44-12.62-.44l1.74,11.32H135l6.53,21.76h13.92l-9.14-24.38s6.53-3,6.53-11.75-.43-11.31-.43-11.31A10.36,10.36,0,0,0,141.52,247.09Z"/><polygon class="cls-1" points="161.97 246.65 161.97 303.67 197.23 304.54 197.23 293.22 174.16 292.79 174.59 280.6 192.87 280.6 192.87 269.72 174.59 268.85 174.59 256.66 196.35 256.66 196.35 246.65 161.97 246.65"/><path class="cls-1" d="M213.33,262.76s-1.74-4.79,3-7,8.7,2.18,8.7,2.18,2.61,2.17,2.61,4.79l10.45-3.05s0-6.53-4.35-9.58-6.1-3.48-6.1-3.48-9.57-3.92-17.41,0-8.7,10.45-8.7,10.45-2.18,7,0,10.88,1.3,6.09,9.57,10.44c0,0,5.23,1.74,9.58,3.05s6.09,3,6.09,4.35.87,5.66-2.17,7.4-8.71.44-8.71.44-3.92-1.31-4.79-7.84l-11.75,3.05a12.52,12.52,0,0,0,4.35,9.57s4.36,6.1,13.93,6.1S232,300.62,232,300.62s8.71-5.66,7-16.1-7.4-11.75-7.4-11.75c.07-.74-10.62-2.3-14.36-4.36C212.83,266,212.88,261.52,213.33,262.76Z"/><path class="cls-1" d="M259.9,258.4s.43-5.65-6.09-4.35c0,0-3.92,1.31-1.74,6.09a8.08,8.08,0,0,0,4.35,3.05c3.77,1.14,10.46,2.85,10.88,5.66.39,2.65,1.63,2,1.74,7.4s-1.74,7.83-1.74,7.83-2.59,4-5.22,4.79a31,31,0,0,1-9.14.87c-3.05-.1-12.19-1.31-13.06-12.62l7.83-1.31s1.51,4.73,3,5.66c1.25.76,2,2.15,6.53.87,1.95-.55,2.81-4.6,1.74-6.53-1.18-2.11-4-3.46-7.4-3.91-3.56-.49-7.83-4.36-9.14-7s-1.74-7,.44-13.06,10.88-6.09,10.88-6.09,13.92-1.74,14.36,10.45Z"/><path class="cls-1" d="M283.4,259.71s.44-4.79,3.05-5.66a6,6,0,0,1,4.35,0s2.61,1.31,2.18,3.92,0,20.45,0,20.45-.44,3.49-2.18,3.92a16.19,16.19,0,0,1-4.79,0c.32.34-2.56-1.18-2.61-3.48,0-1.79,0-20,0-20l-8.27-1.31s-1.93,16.29-.43,21.76c1.12,4.13,1.45,8.9,12.18,10.45,10,1.45,13.93-7.4,13.93-7.4-.38,1,4-13.78,0-27-2.74-9.09-11-9.22-11.31-9.14,0,0-4.76-1.27-7.84,1.3-3.58,3-4.08,2.73-6.09,8.27l-.44,1.74Z"/><rect class="cls-1" x="242.05" y="291.48" width="58.76" height="9.58"/><rect class="cls-1" x="1.81" y="305.84" width="299.88" height="3.92"/><rect class="cls-1" x="1.81" y="291.92" width="67.03" height="9.58"/><text class="cls-2" transform="translate(27.05 327.94) scale(1.16 1)"><tspan xml:space="preserve">L I T E R A R Y   &amp;   A R T S   C L U B</tspan></text><text class="cls-3" transform="translate(95.7 342.97) scale(1.44 1)"><tspan xml:space="preserve">N I T    P A T N A</tspan></text></g></g></svg>