<svg xmlns="http://www.w3.org/2000/svg" viewBox="0 0 693.88 795.79"><defs><style>.cls-1{fill:#f8b46b;}.cls-2{fill:#733818;}.cls-3,.cls-4,.cls-5{fill:#fdb852;}.cls-4{font-size:35.26px;letter-spacing:0em;}.cls-4,.cls-5{font-family:Calibri;}.cls-5{font-size:28.56px;letter-spacing:0.01em;}</style></defs><title>logoexpresso</title><g id="Layer_2" data-name="Layer 2"><g id="Layer_5" data-name="Layer 5"><path class="cls-1" d="M521,106.56s-6.5,25.5,23.5,27.5c0,0,41-31,21-84s-73-50-73-50-45-4-67,52c0,0-4,5,17,21,0,0,66,48,85,129s-5,141-5,141-12,54-72,105-129,54-129,54-88,16-174-51c0,0-20-6-15,16a411.84,411.84,0,0,0,60,37c34,17,81,19,80,20s-1,0-1,0,54,5,111-13,102-64,102-64,43-42,62-109,3-132,3-132-5-54-50-108c0,0-28-34-40-38,0,0,7-20,29-24s36,13,36,13,10,12,8,28c0,0-1,14-3,18S522.5,106.06,521,106.56Z"/><path class="cls-2" d="M378,116.77v17.42a1.27,1.27,0,0,1-1.34,1.27c-7.35-.4-43.4-.5-67.72,33.7a1.28,1.28,0,0,0,1.61,1.89c11.07-5.71,40.16-18.27,63.12-6.65a1.29,1.29,0,0,1,.53.48c1.81,3,15,26.29-7.77,39.44a1.28,1.28,0,0,1-.9.14c-4.18-.86-35-6.46-41.53,13.1-6.43,19.3-3,31.07-3,31.22-.07,3.65-.15,51.7,46,74.78,48,24,88-2,88-2s28.88-14.44,38.47-45.21a1.27,1.27,0,0,1,2.18-.47c2.38,2.83,5.34,11.24-5.65,34.68-15,32-54,54-54,54s-37,21-97,10c-59-10.81-83.17-69.92-84-71.94a.54.54,0,0,0-.05-.11c-.85-1.62-21.79-42-13-91.95s40.72-76,42-77l.08-.05c1.48-1,44.2-29.84,64.87-27h.17c1.68,0,29-.75,30.92,7,.44,1.78-2,21,1,5C381.29,117,378,115.2,378,116.77Z"/><path class="cls-2" d="M377.6,120.28a1.5,1.5,0,0,0,0-3,1.5,1.5,0,0,0,0,3Z"/><path class="cls-2" d="M380,119.59a1.5,1.5,0,0,0,0-3,1.5,1.5,0,0,0,0,3Z"/><path class="cls-2" d="M377.29,114.15a5.25,5.25,0,0,1,1.85,3.62,36.25,36.25,0,0,1,.55,5.59c.09,3.37-.61,7.24-3.85,9l2.26,1.3c-.05-4.52,1.38-9,1.87-13.48.2-1.81.78-4.69-.66-6.12-1.28-1.29-2.85-.5-4.37-.82-1.89-.4-2.69,2.49-.8,2.89a8.69,8.69,0,0,0,2.22.11,2.84,2.84,0,0,1,.77,0c.11,0,.13-.35,0,.2-.14.88,0,1.88-.09,2.77s-.21,2-.36,2.95c-.6,3.8-1.65,7.65-1.61,11.52a1.52,1.52,0,0,0,2.26,1.29c4.16-2.25,5.45-7.16,5.33-11.58a38.16,38.16,0,0,0-.74-6.82,7.71,7.71,0,0,0-3.15-5c-1.62-1.06-3.12,1.54-1.51,2.59Z"/><path class="cls-2" d="M381,128.11a1.5,1.5,0,0,0,0-3,1.5,1.5,0,0,0,0,3Z"/><path class="cls-2" d="M378.62,127.08a1.5,1.5,0,0,0,0-3,1.5,1.5,0,0,0,0,3Z"/><path class="cls-2" d="M377.12,127.29v3.06a1.52,1.52,0,0,0,.44,1.06,1.5,1.5,0,0,0,1.06.44,1.53,1.53,0,0,0,1.5-1.5v-3.06a1.54,1.54,0,0,0-.44-1.06,1.5,1.5,0,0,0-2.56,1.06Z"/><path class="cls-2" d="M287.22,134.29a101,101,0,0,1,38.86-18.83,98.92,98.92,0,0,1,12.32-2.16c1.87-.21,2-3,0-3-9.74.21-19.1,3-28.22,6.23-1.53.53-1.38,3,.4,3a25.29,25.29,0,0,0,14-4.7,1.51,1.51,0,0,0-1.15-2.74,41.32,41.32,0,0,0-19.15,8.4c-1.34,1.06.4,3.27,1.82,2.36A82.44,82.44,0,0,1,352.84,110a79.63,79.63,0,0,1,13.76,1.62c1.88.39,2.69-2.5.79-2.89a85.26,85.26,0,0,0-50,4.82,83.69,83.69,0,0,0-12.8,6.68l1.82,2.35a38.36,38.36,0,0,1,17.82-7.63l-1.15-2.74a22.56,22.56,0,0,1-12.53,4.29l.4,2.94c8.86-3.11,18-5.91,27.42-6.12v-3a104.64,104.64,0,0,0-42.75,14.49,108.4,108.4,0,0,0-10.56,7.37c-1.51,1.2.63,3.31,2.13,2.13Z"/><path class="cls-2" d="M310.53,127.42a1.5,1.5,0,0,0,0-3,1.5,1.5,0,0,0,0,3Z"/><path class="cls-2" d="M185.5,112.06s2,14,14,29,28,34,28,34-13,31,2,60c0,0-19,14-48,8,0,0,0-33-21-63l17-37s8-17,5-31l6,63s-5,6,2,8,7-7,7-7,3,1-3-2Z"/><path class="cls-2" d="M187.62,248.27c5.76.77,18.27,1.18,36.64-5a6.11,6.11,0,0,1,7.74,3.55c1.15,3.25.66,9,.35,11.81-.3,2.61-.35,3.06-.26,2.3.84-7.06,3.74,40.44,18.91,62.64,16.38,24,44,46.24,44.82,46.86a2.33,2.33,0,0,0,.38.26c6.15,2.68,42.46,20.88,76.8,21.88,34.12,1,54-11,54-11s36.89-13,55.91-44.85l.18-.27c1.63-2.13,20.94-32,24.91-51.88,4.18-20.87,5.49-29-4-66,0,0-1.95-8.78-7.79-23.46a3,3,0,0,1-.22-1.19c0-2.58.95-11.72,13.11-4.87a3.12,3.12,0,0,1,1.32,1.48c2.5,5.83,12.7,37.14,14.58,56,3.35,33.75,2.84,35.5-4,75-6.8,39.25-42.35,88.35-44,88,0,0-47,63-120,74-68.82,10.37-99.42-.59-102.7-1.88a3.55,3.55,0,0,0-.64-.17c-4.42-.7-51.85-9.09-95.66-51.95,0,0-31-28-36-47,0,0-1.5-4.5,4.5-4.5,5.75,0,31.68-13.76,41.76-37.77a3.15,3.15,0,0,1,5.88.26,10.27,10.27,0,0,1,.3,1.16,2.31,2.31,0,0,0,.2.68c2.32,4.06,23.75,44.72,42.86,59.67,22.71,17.78,59,40,92,42s84,1,124-29a229.07,229.07,0,0,0,39-36.79,3.15,3.15,0,0,0-4.56-4.33c-10,9.13-22.27,18.38-36.45,25.12-35.14,16.7-45.59,16.41-47.6,16.09a3.09,3.09,0,0,0-1,0c-5.66.89-53.43,7.51-99.44-14.09-47.26-22.18-67.54-53.66-68.92-55.87a2.49,2.49,0,0,0-.17-.24c-1.77-2.35-29.55-39.86-30.4-93.49A3.17,3.17,0,0,1,187.62,248.27Z"/><path class="cls-2" d="M231,261.55a1.5,1.5,0,0,0,0-3,1.5,1.5,0,0,0,0,3Z"/><path class="cls-2" d="M231,260.53a1.5,1.5,0,0,0,0-3,1.5,1.5,0,0,0,0,3Z"/><path class="cls-2" d="M229.48,256.47a89.49,89.49,0,0,0-.55,10.22,1.5,1.5,0,0,0,3,0,89.49,89.49,0,0,1,.55-10.22A1.5,1.5,0,0,0,231,255a1.54,1.54,0,0,0-1.5,1.5Z"/><path class="cls-2" d="M196.22,174.7c.11.11.2.22.3.34s-.21-.29-.06-.08a2.43,2.43,0,0,1,.14.2,5,5,0,0,1,.44.78c0,.05.13.29,0,.05s0,0,0,0l.15.47a8.6,8.6,0,0,1,.19.88l-.06-.4a6.19,6.19,0,0,1,0,1.55l.05-.4a3.06,3.06,0,0,1-.05.32,1.67,1.67,0,0,0,.15,1.16,1.55,1.55,0,0,0,.9.69,1.52,1.52,0,0,0,1.85-1.05,7.67,7.67,0,0,0-1.94-6.67,1.51,1.51,0,0,0-2.12,0,1.54,1.54,0,0,0,0,2.12Z"/><path class="cls-2" d="M297.09,374.66a1.5,1.5,0,0,0,0-3,1.5,1.5,0,0,0,0,3Z"/><path class="cls-2" d="M294.79,372.87a1.5,1.5,0,0,0,0-3,1.5,1.5,0,0,0,0,3Z"/><path class="cls-2" d="M296.06,374.4a1.5,1.5,0,0,0,0-3,1.5,1.5,0,0,0,0,3Z"/><path class="cls-2" d="M66,240.56s7,29,17,39c0,0,3,5,24,6,0,0,49-7,58,50,0,0-16,38-52,39,0,0-42-4-59-62,0,0-7-32,3-59C57,253.56,62,242.56,66,240.56Z"/><polygon class="cls-3" points="0 563.56 0 661.56 61 661.56 61 641.56 26.5 641.06 26.5 620.06 51.5 620.06 51.5 602.06 25.5 602.06 25.5 583.06 60.5 584.06 60.5 563.06 0 563.56"/><polygon class="cls-3" points="77 566.56 101 612.56 77 659.56 101 661.56 113 636.56 122 661.56 151 661.56 128 612.56 151 566.56 125 566.56 117 586.56 108 566.56 77 566.56"/><polygon class="cls-3" points="162 566.56 162 696.56 191 696.56 191 648.48 191 624.31 191 588.9 191 566.56 189.34 566.56 162 566.56"/><path class="cls-3" d="M221,566.56s20,2,24,19,0,39,0,39,1,15-18,21a83.89,83.89,0,0,1-36,3v-24h22s3,0,6-4,1-23,1-23,1-9-9-9H191v-22Z"/><polygon class="cls-3" points="264 566.56 264 696.56 291 696.56 292 648.56 290.9 564.95 264 566.56"/><path class="cls-3" d="M324,566.56H291V591l23-.39s6,2,7,8,0,17,0,17-1,6-5,6-29-1-29-1l4,26h18l15,50h32l-21-56s15-7,15-27-1-26-1-26S347,566.56,324,566.56Z"/><polygon class="cls-3" points="371 565.56 371 696.56 452 698.56 452 672.56 399 671.56 400 643.56 442 643.56 442 618.56 400 616.56 400 588.56 450 588.56 450 565.56 371 565.56"/><path class="cls-3" d="M489,602.56s-4-11,7-16,20,5,20,5,6,5,6,11l24-7s0-15-10-22-14-8-14-8-22-9-40,0-20,24-20,24-5,16,0,25,3,14,22,24c0,0,12,4,22,7s14,7,14,10,2,13-5,17-20,1-20,1-9-3-11-18l-27,7s-1,12,10,22c0,0,10,14,32,14s33-9,33-9,20-13,16-37-17-27-17-27c.17-1.69-24.39-5.28-33-10C487.86,610,488,599.73,489,602.56Z"/><path class="cls-3" d="M596,592.56s1-13-14-10c0,0-9,3-4,14a18.54,18.54,0,0,0,10,7c8.67,2.63,24,6.56,25,13,.91,6.09,3.74,4.66,4,17,.25,12-4,18-4,18s-5.94,9.18-12,11c-7,2.1-15.67,2.17-21,2-7-.22-28-3-30-29l18-3s3.47,10.87,7,13c2.87,1.74,4.62,5,15,2,4.49-1.27,6.47-10.57,4-15-2.7-4.85-9.23-7.95-17-9-8.17-1.1-18-10-21-16s-4-16,1-30,25-14,25-14,32-4,33,24Z"/><path class="cls-3" d="M650,595.56s1-11,7-13,10,0,10,0,6,3,5,9,0,47,0,47-1,8-5,9-11,0-11,0c.72.78-5.9-2.71-6-8-.08-4.12,0-46,0-46l-19-3s-4.43,37.42-1,50c2.59,9.48,3.34,20.43,28,24,23,3.33,32-17,32-17-.88,2.27,9.16-31.66,0-62-6.3-20.88-25.24-21.18-26-21,0,0-10.92-2.91-18,3-8.22,6.87-9.37,6.27-14,19l-1,4Z"/><rect class="cls-3" x="555" y="668.56" width="135" height="22"/><rect class="cls-3" x="3" y="701.56" width="689" height="9"/><rect class="cls-3" x="3" y="669.56" width="154" height="22"/><text class="cls-4" transform="translate(61 752.33) scale(1.16 1)"><tspan xml:space="preserve">L I T E R A R Y   &amp;   A R T S   C L U B</tspan></text><text class="cls-5" transform="translate(218.74 786.87) scale(1.44 1)"><tspan xml:space="preserve">N I T    P A T N A</tspan></text></g></g></svg>