<svg xmlns="http://www.w3.org/2000/svg" viewBox="0 0 257 263.15"><defs><style>.cls-1,.cls-2{fill:#fff;}.cls-1{stroke:#fff;stroke-miterlimit:10;}</style></defs><title>logoexpresso white</title><g id="Layer_2" data-name="Layer 2"><g id="Layer_5" data-name="Layer 5"><path class="cls-1" d="M192.72,39.82s-2.4,9.4,8.67,10.14a27,27,0,0,0,7.75-31C201.76-.58,182.2.52,182.2.52S165.6-.95,157.48,19.71c0,0-1.47,1.84,6.28,7.75,0,0,24.35,17.7,31.36,47.59s-1.85,52-1.85,52-4.43,19.92-26.56,38.74a86.75,86.75,0,0,1-47.6,19.92s-32.46,5.9-64.19-18.82c0,0-7.38-2.21-5.54,5.91a152.21,152.21,0,0,0,22.14,13.65c12.54,6.27,29.89,7,29.52,7.38s-.37,0-.37,0a116.5,116.5,0,0,0,41-4.8c21-6.64,37.63-23.61,37.63-23.61a99,99,0,0,0,22.88-40.22c7-24.71,1.1-48.7,1.1-48.7s-1.84-19.92-18.44-39.84c0,0-10.33-12.54-14.76-14a14.53,14.53,0,0,1,10.7-8.86c8.11-1.47,13.28,4.8,13.28,4.8a14.67,14.67,0,0,1,3,10.33s-.37,5.17-1.11,6.64S193.27,39.63,192.72,39.82Z"/><path class="cls-1" d="M140,43.58V50a.47.47,0,0,1-.49.47,29.19,29.19,0,0,0-25,12.43.48.48,0,0,0,.6.7c4.08-2.11,14.81-6.74,23.28-2.46a.49.49,0,0,1,.2.18c.66,1.1,5.54,9.7-2.87,14.55a.43.43,0,0,1-.33.05c-1.54-.31-12.92-2.38-15.32,4.84s-1.11,11.46-1.11,11.52c0,1.34-.06,19.07,17,27.59a34.17,34.17,0,0,0,32.47-.74s10.65-5.33,14.19-16.68a.47.47,0,0,1,.81-.18c.87,1,2,4.15-2.09,12.8-5.53,11.8-19.92,19.92-19.92,19.92s-13.65,7.75-35.79,3.69c-21.76-4-30.68-25.8-31-26.54l0,0a57.25,57.25,0,0,1-4.79-33.93c3.26-18.44,15-28,15.49-28.39l0,0c.55-.37,16.31-11,23.94-10h.06c.62,0,10.69-.27,11.41,2.59.16.65-.74,7.75.37,1.84C141.17,43.67,140,43,140,43.58Z"/><path class="cls-2" d="M139.81,44.32"/><path class="cls-2" d="M139.81,45.82a1.5,1.5,0,0,0,0-3,1.5,1.5,0,0,0,0,3Z"/><path class="cls-2" d="M140.69,44.07"/><path class="cls-2" d="M140.69,45.57a1.5,1.5,0,0,0,0-3,1.5,1.5,0,0,0,0,3Z"/><path class="cls-2" d="M140,42.14a3.05,3.05,0,0,1,1,2.41,9.86,9.86,0,0,1,0,2.92,3.32,3.32,0,0,1-1.59,2.34,11,11,0,0,1,.23-2.07l.19-1.09a16.49,16.49,0,0,0,.34-3.2.81.81,0,0,0-.07-.38c-.25-.45-.95-.13-1.45-.26"/><path class="cls-2" d="M139.22,43.43c.13.1.11.08-.06,0l.14.15q-.2-.26-.06-.06a1.62,1.62,0,0,1,.1.18c-.08-.2-.09-.22,0-.07l.06.2c0,.14.07.28.1.42l0,.22c0,.17,0,.14,0-.08a2.07,2.07,0,0,1,.06.5c0,.39.07.78.08,1.17a5.81,5.81,0,0,1,0,.59c0,.06-.07.62,0,.32,0,.16-.06.32-.1.48s-.17.56,0,.17a2.22,2.22,0,0,1-.2.41l-.13.19c.13-.16.14-.17,0,0a1.3,1.3,0,0,1-.31.31c.15-.12.17-.13,0,0l-.19.11,2.25,1.3c0-.23,0-.45,0-.67l0-.3c0-.25,0,.21,0,0s.14-.81.21-1.21c.16-.91.32-1.83.42-2.75s.24-2.17-.52-2.93a2.12,2.12,0,0,0-1.47-.59c-.13,0-.26,0-.38,0H139c-.12,0-.32-.06.07,0a1.53,1.53,0,0,0-1.84,1,1.5,1.5,0,0,0,1,1.84,3.87,3.87,0,0,0,1.07.08,1.38,1.38,0,0,0,.29,0,.76.76,0,0,1-.44-.13,1,1,0,0,1-.5-.74,2.25,2.25,0,0,0,0,.58l0,.44-.06.58c0-.29,0,.2,0,.26a28.5,28.5,0,0,0-.63,4.5,1.52,1.52,0,0,0,2.26,1.29c1.83-1,2.49-3.13,2.43-5.09s-.2-4-1.9-5.17a1.51,1.51,0,0,0-2,.54,1.53,1.53,0,0,0,.54,2Z"/><path class="cls-2" d="M141.07,47.21"/><path class="cls-2" d="M141.07,48.71a1.5,1.5,0,0,0,0-3,1.5,1.5,0,0,0,0,3Z"/><path class="cls-2" d="M140.19,46.83"/><path class="cls-2" d="M140.19,48.33a1.5,1.5,0,0,0,0-3,1.5,1.5,0,0,0,0,3Z"/><path class="cls-2" d="M140.19,47.46v1.13"/><path class="cls-2" d="M138.69,47.46v1.13a1.06,1.06,0,0,0,.13.58,1.36,1.36,0,0,0,.79.79,1.06,1.06,0,0,0,.58.13l.4-.05a1.49,1.49,0,0,0,.66-.39l.23-.3a1.48,1.48,0,0,0,.21-.76V47.46a1.27,1.27,0,0,0-.13-.58,1.24,1.24,0,0,0-.31-.48,1.72,1.72,0,0,0-1.06-.44l-.4,0a1.47,1.47,0,0,0-.66.39l-.24.3a1.57,1.57,0,0,0-.2.76Z"/><path class="cls-2" d="M106.07,49.65a37.82,37.82,0,0,1,19.28-7.9A33,33,0,0,0,115.08,44,8.75,8.75,0,0,0,120,42.37a14.43,14.43,0,0,0-6.82,3,30.8,30.8,0,0,1,22.73-4.19"/><path class="cls-2" d="M107.13,50.71a36.47,36.47,0,0,1,18.22-7.46c1.87-.22,2-3.06,0-3a35.53,35.53,0,0,0-10.66,2.33c-1.52.53-1.39,3,.39,3a10.51,10.51,0,0,0,5.66-1.87,1.51,1.51,0,0,0-1.15-2.74A16.07,16.07,0,0,0,112.41,44c-1.48,1.14-.17,3.66,1.51,2.59a29.52,29.52,0,0,1,21.58-4c1.89.38,2.69-2.51.8-2.9A32.66,32.66,0,0,0,112.41,44l1.51,2.59a14.18,14.18,0,0,1,6.47-2.8l-1.16-2.75a7.69,7.69,0,0,1-4.15,1.46l.4,2.94a33,33,0,0,1,9.87-2.22v-3A40.11,40.11,0,0,0,105,48.59c-1.51,1.19.62,3.3,2.12,2.12Z"/><path class="cls-2" d="M115.07,47"/><path class="cls-2" d="M115.07,48.46a1.5,1.5,0,0,0,0-3,1.5,1.5,0,0,0,0,3Z"/><path class="cls-1" d="M68.94,41.84a24.57,24.57,0,0,0,5.16,10.7c4.43,5.54,10.33,12.55,10.33,12.55s-4.79,11.43.74,22.13c0,0-7,5.17-17.71,3a44.8,44.8,0,0,0-7.75-23.25L66,53.28s3-6.27,1.84-11.44l2.22,23.25s-1.85,2.21.73,3,2.59-2.58,2.59-2.58,1.1.37-1.11-.74Z"/><path class="cls-1" d="M69.72,92.1c2.12.28,6.74.43,13.52-1.85a2.24,2.24,0,0,1,2.85,1.31,11.69,11.69,0,0,1,.13,4.35c-.11,1-.13,1.13-.09.85.31-2.6,1.38,14.92,7,23.12,6.05,8.84,16.24,17.06,16.54,17.28l.14.1c2.27,1,15.66,7.7,28.33,8.07S158,141.27,158,141.27s13.61-4.78,20.63-16.55l.06-.09c.6-.79,7.72-11.82,9.19-19.14,1.54-7.7,2-10.7-1.47-24.35a62.67,62.67,0,0,0-2.88-8.66,1.32,1.32,0,0,1-.08-.44c0-1,.35-4.32,4.84-1.79a1.1,1.1,0,0,1,.48.54c.93,2.15,4.69,13.7,5.38,20.68,1.24,12.45,1.05,13.09-1.47,27.67s-15.63,32.59-16.24,32.46c0,0-17.34,23.25-44.27,27.31-25.39,3.82-36.68-.22-37.89-.7a1,1,0,0,0-.23-.06c-1.64-.26-19.14-3.36-35.3-19.17,0,0-11.43-10.33-13.28-17.34,0,0-.55-1.66,1.66-1.66s11.69-5.07,15.41-13.93a1.16,1.16,0,0,1,2.17.09,3.83,3.83,0,0,1,.11.43.72.72,0,0,0,.07.25c.86,1.5,8.76,16.5,15.81,22,8.38,6.56,21.77,14.75,34,15.49s31,.37,45.75-10.7a84.68,84.68,0,0,0,14.39-13.57,1.17,1.17,0,0,0-1.69-1.6,55.42,55.42,0,0,1-13.44,9.27c-13,6.16-16.82,6.05-17.57,5.94a1,1,0,0,0-.35,0c-2.09.32-19.71,2.77-36.69-5.2-17.43-8.19-24.91-19.8-25.42-20.62l-.07-.09A62.79,62.79,0,0,1,68.39,93.27,1.16,1.16,0,0,1,69.72,92.1Z"/><path class="cls-2" d="M85.74,96.44"/><path class="cls-2" d="M85.74,97.94a1.5,1.5,0,0,0,0-3,1.5,1.5,0,0,0,0,3Z"/><path class="cls-2" d="M85.74,96.07"/><path class="cls-2" d="M85.74,97.57a1.5,1.5,0,0,0,0-3,1.5,1.5,0,0,0,0,3Z"/><path class="cls-2" d="M85.72,95.12a31.63,31.63,0,0,0-.2,3.77"/><path class="cls-2" d="M84.22,95.12a31.63,31.63,0,0,0-.2,3.77,1.5,1.5,0,0,0,1.5,1.5,1.52,1.52,0,0,0,1.5-1.5,31.63,31.63,0,0,1,.2-3.77,1.52,1.52,0,0,0-.44-1.06,1.56,1.56,0,0,0-1.06-.44,1.54,1.54,0,0,0-1.06.44l-.24.31a1.5,1.5,0,0,0-.2.75Z"/><path class="cls-2" d="M73.29,64.56a2.23,2.23,0,0,1,.57,1.93"/><path class="cls-2" d="M72.22,65.62l.14.16-.23-.3a2.43,2.43,0,0,1,.29.49l-.15-.36a2.94,2.94,0,0,1,.16.58l-.06-.39a2.18,2.18,0,0,1,0,.57l.05-.4s0,.08,0,.12a1.22,1.22,0,0,0,0,.6,1.12,1.12,0,0,0,.18.55,1.06,1.06,0,0,0,.39.42,1,1,0,0,0,.51.27,1.5,1.5,0,0,0,1.84-1.05,3.4,3.4,0,0,0,.09-.9c0-.22,0-.43-.08-.64l-.06-.28c0-.15-.11-.28-.17-.42a3,3,0,0,0-.19-.41,1.76,1.76,0,0,0-.14-.23c-.13-.17-.26-.34-.4-.5a1.21,1.21,0,0,0-.49-.31,1.14,1.14,0,0,0-.57-.13,1.15,1.15,0,0,0-.58.13,1.21,1.21,0,0,0-.49.31,1.51,1.51,0,0,0-.43,1.06,1.55,1.55,0,0,0,.43,1.06Z"/><path class="cls-2" d="M110.11,138.17"/><path class="cls-2" d="M110.11,139.67a1.5,1.5,0,0,0,0-3,1.5,1.5,0,0,0,0,3Z"/><path class="cls-2" d="M109.26,137.51"/><path class="cls-2" d="M109.26,139a1.5,1.5,0,0,0,0-3,1.5,1.5,0,0,0,0,3Z"/><path class="cls-2" d="M109.73,138.08"/><path class="cls-2" d="M109.73,139.58a1.5,1.5,0,0,0,0-3,1.5,1.5,0,0,0,0,3Z"/><path class="cls-1" d="M24.85,89.25s2.58,10.7,6.27,14.39c0,0,1.11,1.85,8.86,2.22,0,0,18.07-2.59,21.4,18.44,0,0-5.91,14-19.19,14.39,0,0-15.5-1.47-21.77-22.87,0,0-2.58-11.81,1.11-21.77C21.53,94.05,23.37,90,24.85,89.25Z"/><polygon class="cls-1" points="0.5 208.42 0.5 244.58 23 244.58 23 237.2 10.28 237.01 10.28 229.27 19.5 229.27 19.5 222.63 9.91 222.63 9.91 215.62 22.82 215.98 22.82 208.24 0.5 208.42"/><polygon class="cls-1" points="28.91 209.53 37.76 226.5 28.91 243.84 37.76 244.58 42.19 235.35 45.51 244.58 56.21 244.58 47.72 226.5 56.21 209.53 46.62 209.53 43.67 216.91 40.35 209.53 28.91 209.53"/><polygon class="cls-1" points="60.27 209.53 60.27 257.49 70.97 257.49 70.97 239.75 70.97 230.83 70.97 217.77 70.97 209.53 70.36 209.53 60.27 209.53"/><path class="cls-1" d="M82,209.53s7.37.74,8.85,7,0,14.39,0,14.39.37,5.53-6.64,7.74A30.86,30.86,0,0,1,71,239.78v-8.85h8.11a3.11,3.11,0,0,0,2.22-1.48c1.1-1.48.37-8.49.37-8.49a3,3,0,0,0-3.32-3.32H71v-8.11Z"/><polygon class="cls-1" points="97.9 209.53 97.9 257.49 107.86 257.49 108.23 239.78 107.82 208.93 97.9 209.53"/><path class="cls-1" d="M120,209.53H107.86v9l8.49-.14a4.06,4.06,0,0,1,2.58,3,33.11,33.11,0,0,1,0,6.28s-.37,2.21-1.84,2.21-10.7-.37-10.7-.37l1.47,9.59h6.64L120,257.49h11.8l-7.75-20.66s5.54-2.58,5.54-10a72.17,72.17,0,0,0-.37-9.59A8.78,8.78,0,0,0,120,209.53Z"/><polygon class="cls-1" points="137.38 209.16 137.38 257.49 167.26 258.23 167.26 248.63 147.71 248.27 148.08 237.94 163.57 237.94 163.57 228.71 148.08 227.97 148.08 217.64 166.52 217.64 166.52 209.16 137.38 209.16"/><path class="cls-1" d="M180.91,222.81a4.68,4.68,0,0,1,2.58-5.9c4.06-1.85,7.38,1.84,7.38,1.84s2.22,1.85,2.22,4.06l8.85-2.58s0-5.54-3.69-8.12-5.16-3-5.16-3-8.12-3.32-14.76,0S171,218,171,218s-1.84,5.91,0,9.23,1.11,5.16,8.12,8.85c0,0,4.42,1.48,8.11,2.58s5.17,2.59,5.17,3.69.74,4.8-1.85,6.28-7.37.36-7.37.36-3.33-1.1-4.06-6.64l-10,2.59a10.6,10.6,0,0,0,3.68,8.11s3.69,5.17,11.81,5.17,12.18-3.32,12.18-3.32,7.37-4.8,5.9-13.65-6.27-10-6.27-10c.06-.62-9-1.94-12.18-3.68C180.49,225.55,180.53,221.76,180.91,222.81Z"/><path class="cls-1" d="M220.39,219.12s.37-4.8-5.17-3.69c0,0-3.32,1.11-1.47,5.17a6.87,6.87,0,0,0,3.69,2.58c3.19,1,8.87,2.42,9.22,4.79s1.38,1.72,1.48,6.28-1.48,6.64-1.48,6.64-2.19,3.38-4.43,4.06a25.9,25.9,0,0,1-7.74.73c-2.59-.08-10.34-1.1-11.07-10.7l6.64-1.1s1.28,4,2.58,4.79c1.06.65,1.71,1.83,5.53.74,1.66-.47,2.39-3.9,1.48-5.53-1-1.79-3.4-2.93-6.27-3.32s-6.64-3.69-7.75-5.91-1.48-5.9.37-11.06,9.22-5.17,9.22-5.17,11.81-1.48,12.18,8.86Z"/><path class="cls-1" d="M240.31,220.23s.37-4.06,2.58-4.8a5.09,5.09,0,0,1,3.69,0s2.22,1.11,1.85,3.32,0,17.34,0,17.34-.37,2.95-1.85,3.32a13.84,13.84,0,0,1-4.06,0,3.75,3.75,0,0,1-2.21-2.95c0-1.52,0-17,0-17l-7-1.11s-1.63,13.81-.37,18.45c1,3.5,1.24,7.54,10.33,8.85,8.47,1.23,11.81-6.27,11.81-6.27-.33.84,3.38-11.68,0-22.87-2.33-7.71-9.31-7.82-9.59-7.75,0,0-4-1.07-6.64,1.11-3,2.53-3.46,2.31-5.17,7l-.37,1.47Z"/><rect class="cls-1" x="205.26" y="247.16" width="49.81" height="8.12"/><rect class="cls-1" x="1.61" y="259.33" width="254.2" height="3.32"/><rect class="cls-1" x="1.61" y="247.53" width="56.82" height="8.12"/></g></g></svg>